<svg xmlns="http://www.w3.org/2000/svg" width="32" height="32" viewBox="0 0 32 32">
    <g fill="none" fill-rule="evenodd">
        <g fill="#050000" fill-rule="nonzero">
            <path d="M32 7v6.11h-.47l-.065-.004-.19.007c-1.583.102-2.849 1.368-2.952 2.951l-.006.208c0 1.75 1.417 3.167 3.166 3.167l.517-.004v6.11H0v-6.106h.47c1.75 0 3.167-1.418 3.167-3.167 0-1.748-1.418-3.166-3.167-3.166H0V7h32zM7.732 23.591H.94v1.013l6.792-.001v-1.012zm23.327-15.65L8.673 7.94v16.663h22.386v-4.246l-.265-.035c-1.865-.315-3.304-1.888-3.412-3.816l-.006-.234c0-2.111 1.594-3.851 3.644-4.081l.039-.005V7.941zM7.732 22.006H.94v1.271h6.792v-1.271zm0-1.585H.94v1.271h6.792v-1.271zm0-1.585H3.679c-.452.565-1.05 1.008-1.736 1.272l5.789-.001v-1.271zm17.007-4.158l-2.6 4.834h-.623l2.6-4.834h.623zm-.119 1.78c.68 0 1.1.583 1.1 1.52 0 .946-.42 1.533-1.1 1.533-.692 0-1.106-.573-1.106-1.533 0-.95.414-1.52 1.106-1.52zm-7.412-3.752c.746 0 1.996.44 1.996 3.381 0 2.98-1.25 3.424-1.996 3.424-.748 0-2.002-.444-2.002-3.424 0-2.942 1.254-3.381 2.002-3.381zm-3.538.113v5.836h1.309v.744h-3.543v-.744h1.42v-4.799h-1.094v-.618l.128-.021c.465-.08.84-.202 1.146-.378l.036-.02h.598zm10.95 4.186c-.317 0-.506.363-.506.973 0 .62.189.987.506.987.31 0 .501-.377.501-.987 0-.6-.192-.973-.5-.973zm-7.412-3.57c-.762 0-1.197.967-1.197 2.652 0 1.714.435 2.697 1.197 2.697.756 0 1.19-.983 1.19-2.697 0-1.685-.434-2.652-1.19-2.652zm-9.476 3.817H4.46c-.112.46-.302.888-.554 1.272l3.826-.001v-1.271zm13.92-2.574c.69 0 1.1.565 1.1 1.514 0 .963-.41 1.54-1.1 1.54-.688 0-1.1-.577-1.1-1.54 0-.934.42-1.514 1.1-1.514zm0 .545c-.313 0-.5.363-.5.969 0 .612.192.992.5.992.313 0 .506-.38.506-.992 0-.606-.19-.969-.505-.969zm-13.92.444H4.534c.018.123.03.247.037.372l.007.233c0 .227-.019.45-.054.667l3.208-.001v-1.271zm0-1.584H3.946c.243.385.424.813.529 1.27h3.257v-1.27zm0-1.585h-5.64c.649.279 1.21.72 1.635 1.27l4.005.001v-1.271zm0-1.585H.94v1.271h6.792v-1.271zm0-1.584H.94V10.6h6.792V9.329zm0-1.389H.941L.94 9.016h6.792V7.94z"/>
        </g>
    </g>
</svg>
