<?xml version="1.0" encoding="UTF-8"?>
<svg width="32px" height="32px" viewBox="0 0 32 32" version="1.1" xmlns="http://www.w3.org/2000/svg" xmlns:xlink="http://www.w3.org/1999/xlink">
    <title>95756688-CEEE-452C-94FF-6553C8D7FA9B</title>
    <g id="⚙️" stroke="none" stroke-width="1" fill="none" fill-rule="evenodd">
        <g id="VT_icon_font" transform="translate(-248.000000, -996.000000)" fill="#333333">
            <g id="icons/custom/m/cart" transform="translate(248.000000, 996.000000)">
                <path d="M10.6660041,16.9180794 C9.78388884,16.0319637 9.15980731,14.8798132 8.85976811,13.5836438 C8.4677169,11.885422 8.4677169,10.0871871 8.86376864,8.38696499 L10.1699393,2.74822838 L21.7674543,2.74822838 L22.829593,7.32882676 C23.173638,8.80301934 23.4996806,10.1972015 23.4256709,11.6313888 C23.3516612,13.1035811 22.9396074,14.5057643 22.2295147,15.6879187 C21.0833649,17.6021688 19.063101,18.9083394 16.8328097,19.180375 C14.5825157,19.4624118 12.3922296,18.6563065 10.6660041,16.9180794 M24.5318154,6.9287745 L23.4536746,2.2661654 C23.3156565,1.58607656 23.1956409,1 22.4635452,1 L9.49985173,1 L8.76575583,1.06800888 L7.16154627,7.99091325 C6.70748695,9.9471688 6.70548669,12.0194395 7.15954601,13.9796956 C7.53159461,15.5899059 8.31569704,17.0340946 9.42784232,18.1522407 C11.0240508,19.75445 12.9903077,20.7045741 15.1265868,20.9046002 L15.1265868,29.8737719 L10.5059832,29.8737719 L10.5059832,31.62 L21.497419,31.62 L21.497419,29.8737719 L16.8748151,29.8737719 L16.8748151,20.9306036 C16.9308225,20.9266031 16.9868298,20.9226026 17.0428371,20.9166018 C19.8071982,20.5785576 22.3075248,18.9603462 23.7297106,16.5860361 C24.5838222,15.1598498 25.0838875,13.47763 25.171899,11.7194003 C25.25591,10.0411811 24.8878619,8.45897439 24.5318154,6.9287745" id="Fill-1"></path>
            </g>
        </g>
    </g>
</svg>