<svg xmlns="http://www.w3.org/2000/svg" width="32" height="32" viewBox="0 0 32 32">
    <g fill="none" fill-rule="evenodd">
        <g fill="#333">
            <g>
                <path d="M29 10H3c-.552 0-1-.447-1-1 0-.552.448-1 1-1h26c.552 0 1 .448 1 1 0 .553-.448 1-1 1zm-12 2h11v8H17v-8zm11 16c0 1.104-.896 2-2 2h-9v-8h11v6zM4 12h11v8H4v-8zm11 18H6c-1.104 0-2-.896-2-2v-6h11v8zM13 2c1.104 0 2 .896 2 2s-.896 2-2 2-2-.896-2-2 .896-2 2-2zm6 0c1.104 0 2 .896 2 2s-.896 2-2 2-2-.896-2-2 .896-2 2-2zm11 4h-7.555c.344-.59.555-1.268.555-2 0-2.209-1.791-4-4-4-1.202 0-2.267.541-3 1.38C15.267.541 14.202 0 13 0c-2.209 0-4 1.791-4 4 0 .732.211 1.41.555 2H2C.896 6 0 6.896 0 8v2c0 1.104.896 2 2 2v16c0 2.209 1.791 4 4 4h20c2.209 0 4-1.791 4-4V12c1.104 0 2-.896 2-2V8c0-1.104-.896-2-2-2z" transform="translate(-312 -656) translate(312 656)"/>
            </g>
        </g>
    </g>
</svg>
