<svg xmlns="http://www.w3.org/2000/svg" xmlns:xlink="http://www.w3.org/1999/xlink" width="32" height="32" viewBox="0 0 32 32">
    <defs>
        <path id="if74iopyqa" d="M30.306 12.82c.488 0 .571.41.65.806l.65 2.812-.228.052.23-.051c.214.924.436 1.88.385 2.896-.054 1.067-.356 2.089-.877 2.956-.866 1.444-2.386 2.43-4.068 2.635l-.053.006v5.282h2.784v1.16h-6.73v-1.16h2.784v-5.282c-1.271-.133-2.448-.713-3.418-1.687-.676-.682-1.154-1.56-1.381-2.54-.274-1.19-.274-2.447.003-3.632l.974-4.208.48-.044zM13.976 0L27.95 7.404v3.578h-1.343v-2.77L13.975 1.52 1.342 8.212v16.864H3.38V11.95h8.451v13.127h8.642v1.343H0V7.404L13.975 0zm-3.487 13.292H4.723v11.783h5.766V13.292zm-.945 3.449v3.223H8.537v-3.223h1.007zm20.302-2.76h-6.9l-.715 3.075 8.324-.01-.08-.345-.629-2.72z"/>
    </defs>
    <g fill="none" fill-rule="evenodd">
        <g>
            <g transform="translate(-499 -784) translate(499 784)">
                <mask id="y7y0v8q3qb" fill="#fff">
                    <use xlink:href="#if74iopyqa"/>
                </mask>
                <use fill="#050000" xlink:href="#if74iopyqa"/>
                <g fill="#333" mask="url(#y7y0v8q3qb)">
                    <path d="M0 0H32V32H0z"/>
                </g>
            </g>
        </g>
    </g>
</svg>
