<svg xmlns="http://www.w3.org/2000/svg" width="32" height="32" viewBox="0 0 32 32">
    <g fill="none" fill-rule="evenodd">
        <g fill="#333">
            <g>
                <path d="M16 30C8.268 30 2 23.732 2 16 2 8.269 8.268 2 16 2s14 6.269 14 14c0 7.732-6.268 14-14 14zm0-30C7.163 0 0 7.164 0 16c0 8.837 7.163 16 16 16s16-7.163 16-16c0-8.836-7.163-16-16-16zm0 4c.552 0 1 .447 1 1v10.023h8c.553 0 1 .449 1 1.001 0 .552-.447.999-1 .999h-9c-.553 0-1-.447-1-.999V5c0-.553.447-1 1-1z" transform="translate(-184 -656) translate(184 656)"/>
            </g>
        </g>
    </g>
</svg>
