<svg xmlns="http://www.w3.org/2000/svg" width="32" height="32" viewBox="0 0 32 32">
    <g fill="none" fill-rule="evenodd">
        <g fill="#333">
            <g>
                <path d="M16 15c-1.657 0-3-1.343-3-3s1.343-3 3-3 3 1.343 3 3-1.343 3-3 3zm0-8c-2.761 0-5 2.238-5 5s2.239 5 5 5 5-2.238 5-5-2.239-5-5-5zm0 22c-1.663.009-10-12.819-10-17C6 6.478 10.477 2 16 2s10 4.478 10 10c0 4.125-8.363 17.009-10 17zm0-29C9.373 0 4 5.373 4 12c0 5.018 10.005 20.011 12 20 1.964.011 12-15.05 12-20 0-6.627-5.373-12-12-12z" transform="translate(-376 -656) translate(376 656)"/>
            </g>
        </g>
    </g>
</svg>
