<svg xmlns="http://www.w3.org/2000/svg" width="32" height="32" viewBox="0 0 32 32">
    <g fill="none" fill-rule="evenodd">
        <g fill="#333">
            <g>
                <path d="M27.94 14.62l-3.983 6.738-.4 6.512L4.583 17.171l5.574-3.594 3.984-6.74c2.2-3.72 7.073-4.997 10.882-2.847 3.811 2.148 5.117 6.907 2.917 10.63zM11.58 26.732c-1.429-.806-1.919-2.59-1.094-3.986l5.175 2.918c-.825 1.396-2.652 1.873-4.081 1.068zM26.02 2.304C21.257-.38 15.166 1.212 12.416 5.865l-3.983 6.74L1 17.397l7.762 4.377c-1.375 2.326-.56 5.3 1.822 6.642 2.382 1.344 5.427.547 6.802-1.779l7.761 4.377.535-8.685 3.983-6.739c2.75-4.652 1.118-10.6-3.645-13.287z" transform="translate(-120 -656) translate(120 656)"/>
            </g>
        </g>
    </g>
</svg>
