<svg xmlns="http://www.w3.org/2000/svg" width="32" height="32" viewBox="0 0 32 32">
    <g fill="none" fill-rule="evenodd">
        <g fill="#333">
            <g>
                <path d="M29.223 8.269c-1.7 3.23-5.475 8.202-8.635 11.48-3.643 3.94-12.231 9.329-12.231 9.329-.663.348-2.503.374-3.01-.131l-1.83-1.826c-.378-.632-.548-1.364 0-1.826l3.663-2.74c.62-.42 1.325-.504 1.83 0l2.258 2.25c.53-.373 9.009-5.93 13.725-13.578l-2.311-2.305c-.506-.504-.42-1.208 0-1.827l2.747-3.652c.506-.675 1.326-.505 1.83 0l1.833 1.826c.718.674.51 2.245.13 3zm1.438-4.304l-2.878-2.87c-.794-.793-2.083-.793-2.878 0l-4.317 5.74c-.66.97-.794 2.077 0 2.87l1.762 1.757c-1.306 1.75-2.874 3.658-4.64 5.418-1.995 1.99-4.215 3.799-6.211 5.285l-1.703-1.697c-.794-.793-1.903-.66-2.878 0l-5.756 4.305c-.965.665-.795 2.077 0 2.87l2.878 2.869c1.59 1.586 3.657 1.078 5.756 0 0 0 6.353-3.556 11.792-8.98C26.704 16.43 30.66 9.705 30.66 9.705c.825-2.263 1.59-4.155 0-5.74z" transform="translate(-248 -656) translate(248 656)"/>
            </g>
        </g>
    </g>
</svg>
