<svg xmlns="http://www.w3.org/2000/svg" width="32" height="32" viewBox="0 0 32 32">
    <g fill="none" fill-rule="evenodd">
        <g fill="#333">
            <g>
                <path d="M15.748 0c6.871 0 12.46 5.59 12.46 12.46 0 3.057-1.106 5.86-2.94 8.03l4.229 8.083-2.18-.105-3.496-6.523c-.17.144-.343.284-.52.42l3.284 6.121-1.851-.055-1.04 1.316-2.993-5.853c-.202.088-.406.17-.613.247l3.158 6.171L21.912 32l-3.648-7.334c-.813.167-1.654.255-2.516.255-.861 0-1.702-.088-2.515-.255L9.585 32 8.25 30.312l3.159-6.17c-.207-.078-.411-.16-.613-.248l-2.993 5.853-1.04-1.316-1.851.055 3.284-6.121c-.178-.136-.351-.276-.52-.42l-3.497 6.523L2 28.573l4.228-8.082c-1.834-2.17-2.94-4.974-2.94-8.03C3.288 5.59 8.878 0 15.748 0zm0 .658C9.24.658 3.945 5.952 3.945 12.46c0 6.509 5.295 11.803 11.803 11.803 6.508 0 11.803-5.294 11.803-11.803 0-6.508-5.295-11.802-11.803-11.802zm0 1.39c5.727 0 10.387 4.66 10.387 10.386 0 5.727-4.66 10.387-10.387 10.387S5.362 18.16 5.362 12.434s4.66-10.386 10.386-10.386zm0 .493c-5.455 0-9.893 4.438-9.893 9.893 0 5.455 4.438 9.893 9.893 9.893 5.455 0 9.893-4.438 9.893-9.893 0-5.455-4.438-9.893-9.893-9.893zm-.682 13.56c.363-.363 1.002-.363 1.366 0l.812.813c.376.377.376.99 0 1.366l-.812.813c-.183.182-.425.282-.683.282-.26 0-.502-.1-.684-.282l-.812-.813c-.182-.182-.283-.424-.283-.683 0-.258.1-.5.283-.683zm2.29-4.021c.363-.364 1.002-.364 1.365 0l.813.812c.376.377.376.99 0 1.367l-.813.812c-.181.182-.424.282-.683.282-.258 0-.501-.1-.683-.282l-.812-.812c-.183-.182-.283-.425-.283-.684 0-.258.1-.5.283-.683zm-4.58 0c.363-.364 1.002-.364 1.366 0l.812.812c.376.377.376.99 0 1.367l-.812.812c-.182.182-.425.283-.684.283-.258 0-.501-.101-.683-.283l-.812-.812c-.182-.182-.282-.425-.282-.684 0-.258.1-.5.282-.683zm2.29-4.022c.363-.364 1.002-.364 1.366 0l.812.812c.376.376.376.99 0 1.366l-.812.813c-.183.182-.425.282-.683.282-.26 0-.502-.1-.684-.282l-.812-.813c-.182-.181-.283-.424-.283-.683 0-.258.1-.5.283-.683zm-4.58 0c.363-.364 1.002-.364 1.366 0l.813.812c.376.376.376.99 0 1.366l-.813.813c-.182.182-.425.282-.684.282-.258 0-.5-.1-.683-.282l-.812-.813c-.182-.182-.283-.424-.283-.683 0-.258.1-.5.283-.683zm9.16 0c.363-.364 1.002-.364 1.366 0l.812.812c.376.376.376.99 0 1.366l-.812.813c-.182.182-.425.282-.683.282-.26 0-.502-.1-.684-.282l-.813-.813c-.182-.181-.282-.424-.282-.682 0-.26.1-.502.282-.684z" transform="translate(-120 -848) translate(120 848)"/>
            </g>
        </g>
    </g>
</svg>
