<svg xmlns="http://www.w3.org/2000/svg" width="32" height="32" viewBox="0 0 32 32">
    <g fill="none" fill-rule="evenodd">
        <g fill="#333">
            <g>
                <path d="M30.096 14.328c0 .528-.486 1.302-1.002 1.818L18.822 26.385 5.632 13.204 15.89 2.981c.47-.47 1.22-1.071 1.75-1.071h11.499c.529 0 .958.428.958.955v11.463zM15.889 29.311c-.811.807-2.125.807-2.935 0L2.683 19.07c-.811-.807-.811-2.117 0-2.924l1.482-1.479L17.34 27.863l-1.451 1.448zM30.096 0H16.682c-1.06 0-1.252.462-2.261 1.518L1.216 14.683c-1.621 1.615-1.621 4.235 0 5.85l10.27 10.241c1.62 1.615 4.248 1.615 5.869 0l13.207-13.165c.849-.848 1.45-1.27 1.45-2.326V1.91c0-1.054-.858-1.91-1.916-1.91zm-6.138 11.026c-.811.807-2.124.807-2.935 0-.81-.808-.81-2.118 0-2.926.81-.808 2.124-.808 2.935 0 .81.808.81 2.118 0 2.926zm-4.401-4.389c-1.621 1.616-1.621 4.235 0 5.851 1.62 1.616 4.248 1.616 5.869 0 1.62-1.616 1.62-4.235 0-5.851-1.621-1.615-4.25-1.615-5.87 0z" transform="translate(-440 -656) translate(440 656)"/>
            </g>
        </g>
    </g>
</svg>
