<svg xmlns="http://www.w3.org/2000/svg" xmlns:xlink="http://www.w3.org/1999/xlink" width="32" height="32" viewBox="0 0 32 32">
    <defs>
        <path id="daugzyygga" d="M26.53 23.064c-1.287 0-2.438.552-3.254 1.423L10.73 17.275c.122-.407.207-.83.207-1.274 0-.55-.113-1.069-.294-1.554l12.45-7.157c.82.997 2.047 1.647 3.438 1.647 2.468 0 4.467-2 4.467-4.47C30.997 2.002 28.998 0 26.53 0c-2.468 0-4.468 2-4.468 4.468 0 .549.113 1.068.293 1.553L9.906 13.178c-.82-.996-2.048-1.646-3.438-1.646-2.467 0-4.468 2-4.468 4.47 0 2.467 2 4.466 4.468 4.466 1.495 0 2.81-.74 3.621-1.869l12.37 7.11c-.25.559-.397 1.173-.397 1.823 0 2.469 2 4.468 4.468 4.468s4.467-2 4.467-4.468c0-2.467-1.999-4.468-4.467-4.468"/>
    </defs>
    <g fill="none" fill-rule="evenodd">
        <g>
            <g transform="translate(-307 -784) translate(307 784)">
                <mask id="grhniw44sb" fill="#fff">
                    <use xlink:href="#daugzyygga"/>
                </mask>
                <use fill="#050000" xlink:href="#daugzyygga"/>
                <g fill="#333" mask="url(#grhniw44sb)">
                    <path d="M0 0H32V32H0z"/>
                </g>
            </g>
        </g>
    </g>
</svg>
