<svg xmlns="http://www.w3.org/2000/svg" width="32" height="32" viewBox="0 0 32 32">
    <g fill="none" fill-rule="evenodd">
        <g fill="#050000" fill-rule="nonzero">
            <path d="M15.75 0c6.375 0 11.544 5.17 11.544 11.544 0 2.46-.768 4.739-2.079 6.611l5.176 9.503-4.954.475L22.152 32l-4.91-9.007c-.489.063-.987.096-1.492.096-.54 0-1.073-.037-1.594-.11L9.238 32l-3.284-3.867L1 27.658l5.223-9.59c-1.273-1.856-2.017-4.103-2.017-6.524C4.206 5.17 9.374 0 15.75 0zm3.16 22.651c-.22.062-.44.118-.664.167l4.08 7.485.47-.555-3.887-7.097zm-6.414-.027L8.592 29.75l.471.554 4.093-7.507c-.222-.05-.442-.108-.66-.172zm-1.034-.357l-3.621 6.597.528.622 3.814-6.959c-.244-.079-.484-.166-.72-.26zm8.486.035c-.238.093-.48.178-.724.255l3.795 6.929.529-.622-3.6-6.562zm-9.448-.473l-3.392 6.173.51.6 3.545-6.46c-.225-.098-.446-.202-.663-.313zm10.414.043c-.219.11-.44.212-.667.308l3.524 6.422.511-.6-3.368-6.13zm1.329-.78c-.336.228-.684.44-1.044.632l3.305 6.016.45-.528.612-.06-3.323-6.06zm-13.066-.055l-3.354 6.115.614.06.448.527 3.33-6.06c-.358-.197-.704-.411-1.038-.642zm-.816-.622l-3.636 6.631.749.072 3.44-6.27c-.189-.139-.373-.283-.553-.433zm14.702.063c-.18.148-.365.29-.555.427l3.407 6.213.749-.072-3.601-6.568zm.813-.733c-.182.18-.37.354-.562.521l3.699 6.747.788-.076-3.925-7.192zm-16.323-.07L3.59 26.935l.788.076 3.734-6.811c-.191-.17-.378-.345-.558-.527zm17.018-.682c-.149.175-.302.346-.46.512l4.038 7.398.696-.067-4.274-7.843zm-17.709-.08l-4.316 7.923.694.067 4.08-7.471c-.158-.168-.31-.341-.458-.519zM15.75.965c-5.843 0-10.58 4.737-10.58 10.58s4.737 10.579 10.58 10.579 10.58-4.737 10.58-10.58C26.33 5.702 21.591.965 15.75.965zm0 1.427c5.055 0 9.152 4.098 9.152 9.152 0 5.055-4.097 9.153-9.152 9.153-5.055 0-9.152-4.098-9.152-9.153 0-5.054 4.098-9.152 9.152-9.152zm0 .322c-4.877 0-8.83 3.954-8.83 8.83 0 4.878 3.953 8.83 8.83 8.83 4.877 0 8.83-3.952 8.83-8.83 0-4.876-3.953-8.83-8.83-8.83zM9.334 9.541v3.658h1.795v.594H8.7V9.54h.635zm4.675 0v.587h-1.853v1.126h1.56v.587h-1.56v1.358h1.913v.594h-2.55V9.54h2.49zm.796 0l.006.023.904 2.911.1.33c.04-.123.08-.253.125-.402l.03-.103c.04-.123.08-.25.122-.386l.736-2.373h.659l-.013.043-1.37 4.209h-.58l-.037-.107-1.359-4.145h.677zm5.273 0v.587h-1.853v1.126h1.56v.587h-1.56v1.358h1.912v.594h-2.55V9.54h2.49zm1.243 0v3.658h1.794v.594h-2.43V9.54h.636z"/>
        </g>
    </g>
</svg>
