<svg xmlns="http://www.w3.org/2000/svg" width="74" height="74" viewBox="0 0 74 74">
    <g fill="none" fill-rule="evenodd">
        <g fill="#050000" fill-rule="nonzero">
            <g>
                <path d="M56.76 0l5.232 5.031h4.966l2.028 2.008 3.083-3.082 1.698 1.698-3.074 3.073 1.569 1.552.359 21.795L30.696 74 3.644 46.945l11.658-11.658H0V0h56.76zm9.211 7.433H46.555L7.04 46.945l23.656 23.653 39.502-39.502-.326-19.8-.877-.869-1.507 1.508c.305.563.49 1.201.522 1.879l.005.214c0 2.437-1.975 4.412-4.413 4.412-2.44 0-4.416-1.974-4.416-4.412 0-2.439 1.976-4.413 4.416-4.413.807 0 1.563.216 2.214.594l1.472-1.472-1.317-1.304zm-6.398 20.641l1.698 1.698-29.35 29.35-1.698-1.698 29.35-29.35zM25.88 39.442l.391.013.122 1.812-.477-.006c-1.108-.016-2.07.371-2.847 1.15-1.028 1.028-1.188 2.2-.4 2.984.806.807 1.748.522 2.9.07l2.028-.79c1.627-.622 3.353-.974 4.954.63 1.665 1.66 1.457 4.282-.49 6.226-1.726 1.726-3.644 2.002-4.95 1.925l-.388-.023-.119-1.908.496.032c1.397.09 2.69-.388 3.645-1.342 1.204-1.201 1.374-2.524.448-3.45-.919-.921-1.742-.672-3.113-.15l-2.02.791c-.913.35-3.04 1.16-4.737-.54-1.55-1.55-1.37-3.978.426-5.775 1.115-1.114 2.62-1.716 4.131-1.65zm4.025-6.165l13.546 6.526-1.489 1.486-4.21-2.117-3.223 3.222 2.092 4.237-1.435 1.438-6.523-13.55 1.242-1.242zm1.377 2.642c.503.941 1 1.918 1.57 3.08l.858 1.74 2.392-2.393-1.733-.868c-.996-.474-1.963-.96-3.087-1.56zm4.24-8.26l8.748 8.745 4.291-4.288 1.288 1.288-5.688 5.687-10.036-10.036 1.396-1.396zM20.327 30.26H2.399v2.622l15.305.002 2.624-2.624zm26.37-13.779l1.277 1.278-4.432 4.432 2.818 2.821 3.734-3.734 1.278 1.275-3.734 3.734 3.375 3.375 4.573-4.573 1.288 1.288-5.97 5.972L40.87 22.31l5.828-5.828zm-22.4 9.809H2.399v3.17h18.729l3.17-3.17zm3.971-3.97H2.399v3.169H25.1l3.169-3.169zm3.97-3.97H2.399v3.169H29.07l3.169-3.169zm3.97-3.97H2.399v3.169H33.04l3.169-3.169zm27.393-2.365c-1.114 0-2.014.9-2.014 2.012 0 1.11.9 2.01 2.014 2.01 1.111 0 2.011-.9 2.011-2.01 0-1.111-.9-2.012-2.01-2.012zM40.181 10.41H2.399v3.17h34.612l3.17-3.17zm3.968-3.968H2.399V9.61h38.582l3.168-3.168zm11.638-4.043H2.4L2.399 5.64H44.95l.61-.61h12.966l-2.739-2.632z" transform="translate(-132 -1129) translate(132 1129)"/>
            </g>
        </g>
    </g>
</svg>
