<?xml version="1.0" encoding="UTF-8"?>
<svg width="32px" height="32px" viewBox="0 0 32 32" version="1.1" xmlns="http://www.w3.org/2000/svg" xmlns:xlink="http://www.w3.org/1999/xlink">
    <title>19E701CF-9D32-4BEC-B9FC-3DD6617A1E9C</title>
    <g id="⚙️" stroke="none" stroke-width="1" fill="none" fill-rule="evenodd">
        <g id="VT_icon_font" transform="translate(-376.000000, -592.000000)" fill="#333333">
            <g id="icons/awesome/arrow/move" transform="translate(376.000000, 592.000000)">
                <path d="M18.2855166,4.29235237 C18.6803172,3.90254921 19.3179952,3.90254921 19.7117964,4.29235237 L19.7117964,4.29235237 L31.7127364,15.2268309 C31.9226304,15.4367249 32.012585,15.7165836 31.9985921,15.9864474 L31.9981783,16.1061828 C31.984436,16.3448378 31.8926456,16.5761496 31.7127364,16.7560587 L31.7127364,16.7560587 L19.7117964,27.6905373 C19.3179952,28.0803405 18.6803172,28.0803405 18.2855166,27.6905373 C17.892715,27.2907392 17.892715,26.6610571 18.2855166,26.271254 L18.2855166,26.271254 L28.458,16.993 L0.999495298,16.9934389 C0.447489287,16.9934389 6.76012394e-17,16.5459496 0,15.9939436 C-6.76012394e-17,15.4419376 0.447489287,14.9944483 0.999495298,14.9944483 L28.473,14.994 L18.2855166,5.7116357 C17.9229305,5.35181739 17.8950392,4.77908884 18.2018429,4.38651511 Z" id="Combined-Shape"></path>
            </g>
        </g>
    </g>
</svg>