<?xml version="1.0" encoding="UTF-8"?>
<svg width="32px" height="32px" viewBox="0 0 32 32" version="1.1" xmlns="http://www.w3.org/2000/svg" xmlns:xlink="http://www.w3.org/1999/xlink">
    <title>F1DB51B4-DD93-41BB-AB90-339D38252303</title>
    <g id="-" stroke="none" stroke-width="1" fill="none" fill-rule="evenodd">
        <g id="VT_icon_svg" transform="translate(-184.000000, -252.000000)">
            <g id="Path" transform="translate(184.000000, 252.000000)">
                <path d="M7,32 L25,32 C28.8659932,32 32,28.8659932 32,25 L32,7 C32,3.13400675 28.8659932,3.55271368e-15 25,3.55271368e-15 L7,3.55271368e-15 C3.13400675,3.55271368e-15 -3.55271368e-15,3.13400675 -3.55271368e-15,7 L-3.55271368e-15,25 C-3.55271368e-15,28.8659932 3.13400675,32 7,32 Z" fill="#3667B8"></path>
                <path d="M13.4546667,26.3422838 L13.4546667,16.047292 L11.3057778,16.047292 L11.3057778,12.5428028 L13.4546667,12.5428028 L13.4546667,9.78299543 C13.4546667,7.1928174 14.8408889,5.84022314 17.9155556,5.84022314 L20.7768889,5.84022314 L20.7768889,9.43219128 L18.5404444,9.43219128 C17.7511111,9.43219128 17.5866667,9.75501991 17.5866667,10.5711946 L17.5866667,12.5428028 L20.7768889,12.5428028 L20.4693333,16.0037745 L17.5866667,16.0037745 L17.5866667,26.3422838 L13.4546667,26.3422838 Z" fill="#FFFFFF"></path>
            </g>
        </g>
    </g>
</svg>